<svg id="Capa_1" data-name="Capa 1" xmlns="http://www.w3.org/2000/svg" viewBox="0 0 320 320"><defs><style>.cls-1{fill:#fff;}.cls-2{fill:#f7931e;}</style></defs><title>logo vectorz</title><ellipse cx="160" cy="160" rx="160" ry="159.5"/><polygon class="cls-1" points="153 232 154 232 154 203 175 232 176 232 176 201 175 201 175 230 154 201 153 201 153 232"/><polygon class="cls-1" points="185 203 200 203 200 202 184 202 184 233 201 233 201 232 185 232 185 218 200 218 200 217 185 217 185 203"/><path class="cls-1" d="M245.5,209.5s2-8,10-6A5.09,5.09,0,0,1,259,207a5.28,5.28,0,0,1-1.4,5.6,5.59,5.59,0,0,1-3.84,1.4H251v3s11,0,8,8-15,2-15,2l-1,3s7.35,4,14.33,1.62a7.88,7.88,0,0,0,5-5.09,16.37,16.37,0,0,0,.48-1.95,7.43,7.43,0,0,0-2.34-6.84A7.23,7.23,0,0,0,257,216s7-3,5-10-12-7-16-3c0,0-3,3-3,5Z"/><polygon class="cls-2" points="208 234 222 234 279 116 279 106 199 106 199 118 263 118 208 234"/><path class="cls-1" d="M163.09,189.76l2.49,10.6A101.6,101.6,0,0,0,178.5,151.5c0-28-6-48-19-63,0,0-15-18-40-21C94.92,64.55,67,71.75,47,106.21a40.41,40.41,0,0,0-2.26,4.57c-3.39,8.08-12.35,32.73-8.26,59.72,0,0,3,30,23,48,0,0,12,12,36,15s38.64-4.45,50.32-11.73l-1.78-7.6S129.5,228.5,98.5,226.5c0,0-18.62.59-35.5-14.5-6.75-6-10.91-13.49-14-22a103.72,103.72,0,0,1-4.5-51.5c6-37,20-48,39-59,0,0,19.5-10.5,40.5-4.5.94.27,25,4,36.5,27.5,0,0,7,9,10,33C170.5,135.5,172.68,171,163.09,189.76Z"/></svg>